<svg width="77" height="153" viewBox="0 0 77 153" fill="none" xmlns="http://www.w3.org/2000/svg">
<path fill-rule="evenodd" clip-rule="evenodd" d="M11 8.49996C8.72792 11.8834 7.17246 16.6216 6.50002 19.5C5.82757 22.3784 4.8432 23.5 3.8432 25.5C3.39599 26.3944 2.3432 29.9163 2.3432 33C1.8432 36 2.1101 36.1964 1.8432 38C1.69522 39 0.843201 47.5351 0.843201 62.7383C0.843201 77.9416 1.50002 83.9998 2.00002 87.9998C2.25002 89.9998 2.3432 90.5002 2.8432 94.5C3.8432 98.5 4.40123 101.41 5.00002 103C5.40123 104.065 6.50002 108 7.00002 110C8.00002 114 8.8432 116 9.00002 116.5C9.15683 117 10.3947 120.476 10.8432 121.5C11.5 123 12.8432 126.5 14.3432 130.5C16.3432 134.5 16.3432 135 18.3432 138.5C19.8432 140.5 29.0356 147.946 30.8432 149.5C32.6508 151.054 34.3432 150.5 37.8432 152.5C42.8432 150 49.9853 140.938 52.0719 130.284C52.7669 126.732 54.3432 122.5 54.3432 122.5C54.3432 122.5 55.6766 47 54.3432 42.9998C53.3432 39.9998 53.0642 38.4542 52.0321 35.4528C51 32.4514 50 31 49.4203 30.1586C48.8406 29.3172 48.5 28 46.8293 25.7245C43 19.5 24.9168 0.0423205 20 -3.30363e-05C17.3761 -0.0228388 13.7938 4.33955 11 8.49996ZM66.2192 36.6925C62.9246 40.3104 65.3432 50.9998 64.8432 54.9998C65.7098 57.4433 66.6924 63.5285 66.3492 81.4554C65.8466 107.711 65.8969 111.5 70.8432 111.5C71.2418 111.5 71.9004 106.094 71.9004 101.345C71.9004 96.5969 71.5234 95.9244 73.7617 90.9622C76 86 78.5 52.4999 74.5 38.3375C74.0667 37.1465 73.6335 36.0633 72.7669 35.0796C70.1673 31.8218 69.7166 32.8546 66.2192 36.6925Z" fill="url(#paint0_linear_10_29)" fill-opacity="0.51"/>
<defs>
<linearGradient id="paint0_linear_10_29" x1="38.7293" y1="-0.00012207" x2="38.7293" y2="152.5" gradientUnits="userSpaceOnUse">
<stop stop-color="#06CAE4" stop-opacity="0.5"/>
<stop offset="1" stop-color="#06CAE4"/>
</linearGradient>
</defs>
</svg>
