<svg width="76" height="153" viewBox="0 0 76 153" fill="none" xmlns="http://www.w3.org/2000/svg">
<path fill-rule="evenodd" clip-rule="evenodd" d="M65.6155 8.50009C67.8876 11.8835 69.4431 16.6217 70.1155 19.5001C70.788 22.3785 71.7723 23.5001 72.7723 25.5001C73.2196 26.3945 74.2723 29.9164 74.2723 33.0001C74.7723 36.0001 74.5054 36.1965 74.7723 38.0001C74.9203 39.0001 75.7723 47.5352 75.7723 62.7385C75.7723 77.9418 75.1155 83.9999 74.6155 87.9999C74.3655 89.9999 74.2723 90.5003 73.7723 94.5001C72.7723 98.5001 72.2143 101.41 71.6155 103C71.2143 104.065 70.1155 108 69.6155 110C68.6155 114 67.7723 116 67.6155 116.5C67.4587 117 66.2208 120.476 65.7723 121.5C65.1155 123 63.7723 126.5 62.2723 130.5C60.2723 134.5 60.2723 135 58.2723 138.5C56.7723 140.5 47.58 147.946 45.7723 149.5C43.9647 151.054 42.2723 150.5 38.7723 152.5C33.7723 150 26.6303 140.938 24.5436 130.284C23.8486 126.732 22.2723 122.5 22.2723 122.5C22.2723 122.5 20.9389 47.0001 22.2723 42.9999C23.2723 39.9999 23.5513 38.4544 24.5834 35.4529C25.6155 32.4515 26.6155 31.0001 27.1952 30.1587C27.775 29.3173 28.1155 28.0001 29.7862 25.7246C33.6155 19.5001 51.6987 0.0424426 56.6155 8.9034e-05C59.2394 -0.0227167 62.8218 4.33967 65.6155 8.50009ZM10.3963 36.6926C13.6909 40.3106 11.2723 50.9999 11.7723 54.9999C10.9058 57.4434 9.92314 63.5286 10.2663 81.4555C10.7689 107.711 10.7186 111.5 5.77234 111.5C5.37373 111.5 4.71517 106.094 4.71517 101.345C4.71517 96.597 5.0921 95.9245 2.85381 90.9623C0.615524 86.0001 -1.88448 52.5 2.11552 38.3377C2.5488 37.1467 2.98207 36.0634 3.84863 35.0797C6.44828 31.8219 6.8989 32.8547 10.3963 36.6926Z" fill="url(#paint0_linear_11_30)" fill-opacity="0.51"/>
<defs>
<linearGradient id="paint0_linear_11_30" x1="37.8862" y1="0" x2="37.8862" y2="152.5" gradientUnits="userSpaceOnUse">
<stop stop-color="#06CAE4" stop-opacity="0.5"/>
<stop offset="1" stop-color="#06CAE4"/>
</linearGradient>
</defs>
</svg>
