<svg width="134" height="286" viewBox="0 0 134 286" fill="none" xmlns="http://www.w3.org/2000/svg">
<path fill-rule="evenodd" clip-rule="evenodd" d="M97.9086 11.741C103.28 6.30477 107.615 1.41214 107.615 0.868513C107.615 -1.5778 102.714 0.86852 86.3179 11.741C58.4248 30.1337 50.7918 35.7511 41.7454 44.8116C34.5837 51.8787 32.5106 54.778 28.1758 63.023C21.6737 75.4358 12.4388 98.0868 5.3713 118.473L0 134.147L1.03657 176.913C1.60197 200.47 2.5443 222.486 3.01547 226.02C4.42897 234.99 5.84248 239.52 6.87904 238.523C7.35021 238.07 8.57525 230.188 9.61182 221.037C11.8734 201.376 16.3024 176.822 19.6006 166.312C20.8256 162.325 22.5218 156.074 23.3699 152.631C25.443 144.204 27.3277 138.768 33.4529 123.637C36.2799 116.661 40.1435 106.694 42.1224 101.439C47.0225 88.1204 48.5302 85.4023 69.7328 49.7948C81.7947 29.5901 86.4121 23.3384 97.9086 11.741ZM129.665 32.6706C127.875 20.8014 125.519 14.8215 120.713 9.56649C116.378 4.85507 115.059 4.49267 112.986 7.57321C112.138 8.66046 107.521 13.7343 102.715 18.6269C91.7835 29.6806 87.6373 35.3887 76.3292 54.325C55.0325 89.8418 52.2055 95.4593 44.4783 115.936C41.7456 123.184 37.5051 134.057 34.9607 140.218C29.8721 152.449 29.6837 153.537 31.851 154.714C32.9818 155.349 34.3953 161.329 37.4108 178.09C42.7821 207.265 43.9129 212.158 46.9284 219.225C52.017 231.366 61.9115 248.127 66.6232 253.02C71.7118 258.184 73.5965 255.466 76.4235 239.248C78.4966 227.651 81.6063 216.597 87.3546 200.198C89.2392 194.943 92.4432 184.976 94.6105 178C99.228 162.778 108.369 139.04 113.363 129.073C118.169 119.56 125.99 109.594 130.513 107.328L134 105.516V96.0029C134 82.2311 131.362 43.6337 129.665 32.6706ZM133.717 143.298C133.435 158.882 132.775 174.919 132.115 178.906C128.817 201.738 118.546 231.094 104.694 257.369C97.8145 270.416 95.4587 272.862 90.37 272.5C83.8679 272.047 81.2294 265.705 81.2294 250.755C81.2294 242.51 81.9833 239.611 94.6105 200.651C110.253 152.178 117.698 134.51 129.1 119.288C130.796 116.933 132.681 115.03 133.246 115.03C133.906 115.03 134.094 124.09 133.717 143.298ZM38.4475 218.047C37.2224 213.879 29.4011 172.745 29.4011 170.027C29.4011 168.939 26.8568 169.302 25.9144 170.48C24.5951 172.111 23.4643 176.822 19.4123 197.48C16.0319 214.905 16.0199 215.416 15.274 247.424L15.266 247.765L14.5122 280.383L17.5276 283.191L20.4489 286L31.8511 285.366C41.7456 284.913 43.8188 284.46 47.3996 282.466C53.4306 279.023 66.1521 268.242 66.1521 266.611C66.1521 265.795 63.6078 261.99 60.4981 258.094C50.5093 245.681 42.311 230.822 38.4475 218.047Z" fill="#03BFCB"/>
</svg>
