<svg width="134" height="286" viewBox="0 0 134 286" fill="none" xmlns="http://www.w3.org/2000/svg">
<path fill-rule="evenodd" clip-rule="evenodd" d="M36.0915 11.741C30.7202 6.30478 26.3854 1.41214 26.3854 0.868517C26.3854 -1.5778 31.2856 0.868524 47.6822 11.741C75.5753 30.1337 83.2082 35.7511 92.2546 44.8116C99.4164 51.8787 101.49 54.778 105.824 63.023C112.326 75.4358 121.561 98.0868 128.629 118.473L134 134.147L132.964 176.913C132.398 200.47 131.456 222.486 130.985 226.02C129.571 234.99 128.158 239.52 127.121 238.523C126.65 238.07 125.425 230.188 124.388 221.037C122.127 201.376 117.698 176.822 114.4 166.312C113.174 162.325 111.478 156.074 110.63 152.631C108.557 144.204 106.672 138.768 100.547 123.637C97.7202 116.661 93.8566 106.694 91.8777 101.439C86.9776 88.1204 85.4698 85.4023 64.2673 49.7948C52.2054 29.5901 47.588 23.3384 36.0915 11.741ZM4.33474 32.6706C6.12518 20.8014 8.48101 14.8215 13.2869 9.56649C17.6217 4.85507 18.9409 4.49267 21.0141 7.57321C21.8622 8.66046 26.4796 13.7343 31.2855 18.6269C42.2166 29.6806 46.3629 35.3887 57.6709 54.325C78.9677 89.8418 81.7947 95.4593 89.5218 115.936C92.2546 123.184 96.4951 134.057 99.0394 140.218C104.128 152.449 104.316 153.537 102.149 154.714C101.018 155.349 99.6048 161.329 96.5893 178.09C91.218 207.265 90.0872 212.158 87.0717 219.225C81.9831 231.366 72.0886 248.127 67.3769 253.02C62.2883 258.184 60.4037 255.466 57.5767 239.248C55.5035 227.651 52.3938 216.597 46.6456 200.198C44.7609 194.943 41.557 184.976 39.3896 178C34.7722 162.778 25.6315 139.04 20.6371 129.073C15.8312 119.56 8.00985 109.594 3.48664 107.328L0 105.516V96.0029C0 82.2311 2.63854 43.6337 4.33474 32.6706ZM0.282626 143.298C0.565327 158.882 1.22496 174.919 1.8846 178.906C5.18277 201.738 15.4542 231.094 29.3065 257.369C36.1856 270.416 38.5414 272.862 43.63 272.5C50.1321 272.047 52.7707 265.705 52.7707 250.755C52.7707 242.51 52.0168 239.611 39.3895 200.651C23.7468 152.178 16.3023 134.51 4.90007 119.288C3.20386 116.933 1.31919 115.03 0.753794 115.03C0.0941593 115.03 -0.0943076 124.09 0.282626 143.298ZM95.5527 218.047C96.7778 213.879 104.599 172.745 104.599 170.027C104.599 168.939 107.143 169.302 108.086 170.48C109.405 172.111 110.536 176.822 114.588 197.48C117.968 214.905 117.98 215.416 118.726 247.424L118.734 247.765L119.488 280.383L116.473 283.191L113.551 286L102.149 285.366C92.2546 284.913 90.1814 284.46 86.6005 282.466C80.5696 279.023 67.8481 268.242 67.8481 266.611C67.8481 265.795 70.3924 261.99 73.5021 258.094C83.4908 245.681 91.6892 230.822 95.5527 218.047Z" fill="#03BFCB"/>
</svg>
