<svg width="81" height="57" viewBox="0 0 81 57" fill="none" xmlns="http://www.w3.org/2000/svg">
<path d="M13.3218 0.986786C12.927 1.57886 12.0389 7.89437 11.2495 15.098C8.97986 35.13 8.2891 37.7943 3.84851 43.123C1.77624 45.6887 0 48.1557 0 48.5504C0 48.9451 2.07227 49.4385 4.73663 49.8333C18.8478 51.5108 30.492 53.6818 35.2287 55.458C38.1891 56.5435 41.3468 57.2342 42.2349 56.9382C43.123 56.6422 45.8861 55.6554 48.3531 54.7672C52.0042 53.3857 75.49 49.3399 79.7332 49.3399C81.6081 49.3399 81.1147 46.8729 78.9438 44.8993C74.5032 40.9521 72.9243 36.6102 71.4441 25.4594C69.1745 8.48645 67.2996 0.986786 65.2273 0.986786C64.2405 0.986786 60.5894 3.55246 57.1356 6.71021C49.0438 14.1112 47.6623 14.802 40.7547 14.802C34.3406 14.802 28.8145 12.0389 23.1897 5.92077C20.6241 3.25642 15.8874 -1.19209e-05 14.4072 -1.19209e-05C14.1112 -1.19209e-05 13.6178 0.493387 13.3218 0.986786Z" fill="url(#paint0_linear_19_14)"/>
<defs>
<linearGradient id="paint0_linear_19_14" x1="40.4468" y1="-1.14441e-05" x2="40.4468" y2="57.007" gradientUnits="userSpaceOnUse">
<stop stop-color="#03BFCB" stop-opacity="0.67"/>
<stop offset="1" stop-color="#06CAE4"/>
</linearGradient>
</defs>
</svg>
