<svg width="352" height="152" viewBox="0 0 352 152" fill="none" xmlns="http://www.w3.org/2000/svg">
<path fill-rule="evenodd" clip-rule="evenodd" d="M66.8024 6.31981C63.5425 9.79545 60.3488 14.7457 59.7041 17.3199C59.0612 19.8941 57.4915 21.9031 56.7836 22.9516C56.0757 24 55.4005 25 54.4627 26.98C53.525 28.96 54.0757 28 53.0757 29.5C52.909 30 52.411 31.6481 51.5757 33C50.5757 36.5 42.9627 51.48 41.4627 52.48C40.9628 53.3535 40.9628 53.3535 40.4627 53.98C39.4627 56.98 28.6672 68.603 12.8493 82.219C1.30969 92.1511 -1.36056 95.3051 0.575668 96.7181C1.93728 97.7094 4.23766 101.182 5.6903 104.434C7.14295 107.685 8.96271 110 9.4627 110.5C9.9627 111 10.3627 111.48 10.9627 112.48C12.4627 114.98 31.5757 132.5 35.5757 134.5C37.5757 136 37.5757 136 39.5757 137C40.5757 137.5 40.5757 137.5 45.5511 139.504C49.0757 140.923 49.0757 141 51.2404 141.756C60.0757 144.5 64.4312 147.075 75.0757 148.668C78.2317 149.558 78.4628 149.339 81.5757 150C88.5683 151.485 121.463 151.854 124.252 150.334C126.463 149.854 126.463 149.854 131.838 148.668C135.963 147.758 136.463 147.854 139.291 147.19C143.076 145.834 142.963 145.854 146.989 144.616C151.576 142.834 151.471 142.834 153.647 141.928C155.076 141.334 155.258 141.33 156.576 140.334C160.576 137.307 168.9 132.812 170.504 127.546C172.431 121.216 178.335 121.266 180.751 127.632C182.666 132.681 189 138 191.5 139C192.635 139.663 192.782 139.792 195.5 141C200 143 216.5 148 222.5 149.5C225.5 150 225.5 150 228.555 150.334C230.659 150.564 238.373 152 249.528 152C261.464 152 261.5 152.097 269.5 150.5C271.172 150.166 271.5 150 276 149C280.127 148.083 280 148 283.551 147.001C285.963 146 285.495 146.221 287.963 145.5C289.963 145 294.551 143.774 298.723 142.003C302.895 140.232 307.463 138.5 308.463 138C309.747 137.273 310.076 137 310.076 137L313.83 135.043C313.83 135.043 342 109 345.5 104C346.315 103.086 346.393 102.998 347 102.5C347.821 101.826 349.124 99.9321 350.463 97.4195C353.104 92.4543 354.026 93.5823 338.857 83.2021C335.898 81.1777 329.526 75.0228 324.698 69.5244C319.87 64.0261 315.302 59.5 314.802 59C314.302 58.5 313.636 57.5 312.802 56C312.302 55.5 312.106 55.3042 311.302 54C310.606 53.3042 308.057 49.7586 305.624 44.9484C303.191 40.1381 300.43 34.8997 299.487 33.3085C298.545 31.7173 297.775 29.5496 297.775 28.4916C297.775 24.9143 289.275 11.2417 283.551 5.61336L277.862 0.0200238L240.643 0.656508C217.427 1.05306 202.963 1.50001 200.463 2.50002C197.963 3.50002 195.954 4.26186 193.463 5.50002C188.433 8.00002 179.5 13.061 179.5 16.5C179.5 17.9629 178.331 20.3723 175.456 20.3723C172 20 171.5 19.5 170.715 16.5768C170.715 12.0781 164.983 8.4818 158.463 5.50002C155.963 4.35677 152.963 3.50002 150.463 3.00002C148.35 2.00001 133.055 1.04304 110.109 0.646491L72.7325 1.52588e-05L66.8024 6.31981Z" fill="url(#paint0_radial_6_23)"/>
<defs>
<radialGradient id="paint0_radial_6_23" cx="0" cy="0" r="1" gradientUnits="userSpaceOnUse" gradientTransform="translate(176 60.5) rotate(-179.232) scale(125.86 291.465)">
<stop offset="0.275128" stop-color="#06CAE4" stop-opacity="0.51"/>
<stop offset="1" stop-color="#03BFCB"/>
</radialGradient>
</defs>
</svg>
