<svg width="273" height="310" viewBox="0 0 273 310" fill="none" xmlns="http://www.w3.org/2000/svg">
<path fill-rule="evenodd" clip-rule="evenodd" d="M86.0057 19.2771C113.352 13.5618 121.077 10.8494 129.067 4.35915C131.997 1.93739 134.75 -9.17912e-06 135.282 -9.17912e-06C135.815 -9.17912e-06 138.301 1.54991 140.876 3.39044C147.357 8.13708 155.792 12.3025 162.451 14.0462C176.036 17.4366 180.031 18.3084 186.335 19.374C194.503 20.8271 197.167 23.3457 198.676 30.8047C200.008 37.7793 199.919 47.9507 198.587 49.21C197.966 49.6943 196.101 50.4693 194.503 50.8568C189.886 51.9224 189.975 53.8598 195.036 58.897C200.274 64.2249 201.162 68.0028 200.186 80.3053C199.031 94.0609 197.522 96.8701 190.419 98.3232C186.246 99.195 186.246 101.52 190.33 104.329C192.017 105.588 193.793 106.557 194.148 106.557C194.592 106.557 195.924 107.526 197.167 108.785C199.12 110.819 199.475 112.079 199.919 120.216C200.274 125.253 200.186 133.196 199.831 137.943C199.209 145.305 198.854 146.758 197.167 148.114C196.013 148.986 194.059 150.633 192.728 151.795L190.33 153.83L192.55 156.445C193.793 157.898 195.835 159.739 197.256 160.611L199.653 162.257L199.12 170.976C198.854 175.722 197.788 183.859 196.812 188.897C196.19 192.103 194.561 201.041 192.588 211.862C191.462 218.04 190.225 224.831 188.999 231.52C180.12 280.342 178.699 287.026 175.592 293.71C171.951 301.75 168.4 305.722 162.895 307.756C158.989 309.209 155.082 309.5 135.726 309.5C109.002 309.5 107.048 309.113 101.011 302.332C94.3517 294.776 92.4872 288.189 84.6739 245.081C80.4121 221.542 78.9915 213.986 77.7485 208.271C75.5289 197.809 71.7998 173.107 71.7998 168.457C71.7998 164.389 72.155 163.614 76.6831 158.964C82.1879 153.249 82.0991 152.086 76.4167 150.052C74.641 149.471 72.8652 148.696 72.5101 148.308C72.155 148.018 71.7998 139.105 71.711 128.45L71.5334 109.173L76.6831 106.945C82.7206 104.232 84.23 102.973 84.23 100.745C84.23 99.4856 83.2533 98.9044 80.3233 98.42C78.1925 98.0325 75.7952 96.967 75.0849 96.0951C72.4213 92.8016 71.5334 85.5363 71.711 68.584C71.7998 64.903 72.2437 62.675 73.1316 61.8031C73.7332 61.2926 74.5865 60.4526 75.3125 59.7379C75.5508 59.5033 75.7753 59.2822 75.9728 59.0908C76.7719 58.3158 78.2812 57.1534 79.2579 56.669C82.4542 54.9253 81.5664 52.213 77.127 50.4693L73.1316 48.8225L72.5101 43.1072C71.6222 34.6795 72.5989 26.4455 74.8186 23.5394C76.3279 21.6989 78.5476 20.8271 86.0057 19.2771ZM144.871 50.9537C142.474 49.6944 139.811 47.757 138.923 46.5945C136.792 44.0759 135.016 44.0759 132.175 46.5945C130.932 47.6601 128.268 49.4037 126.226 50.3724C120.455 53.1817 121.165 55.1191 129.156 58.8001L135.904 61.9L140.077 59.672C142.297 58.4127 145.227 57.1534 146.647 56.7659C150.287 55.7972 149.577 53.5692 144.871 50.9537ZM150.199 98.8075C147.002 98.8075 141.941 96.6764 139.367 94.4483C136.17 91.4454 135.282 91.5422 131.109 94.5452C129.334 95.9014 125.96 97.5482 123.563 98.2263C117.436 99.9699 117.791 102.198 124.983 106.17C128.091 107.913 131.82 110.916 133.24 112.757C134.661 114.694 136.259 116.244 136.703 116.244C137.147 116.244 138.035 114.791 138.745 112.951C139.633 110.723 141.409 108.785 144.339 106.945C149.755 103.554 151.708 101.714 151.708 100.067C151.708 99.3887 150.998 98.8075 150.199 98.8075ZM144.161 149.761C143.007 148.889 140.965 146.274 139.722 143.852C137.147 139.105 134.483 138.137 133.418 141.624C133.152 142.787 130.754 145.886 128.268 148.502L123.74 153.249L127.469 156.736C129.423 158.77 131.553 161.289 132.086 162.451C132.708 163.71 133.773 164.679 134.661 164.679C136.525 164.582 146.381 154.605 146.381 152.764C146.381 151.989 145.404 150.633 144.161 149.761ZM255.498 11.4071C244.512 16.7063 240.757 18.0311 231.857 19.4506C226.92 20.3022 222.262 21.1539 221.497 21.4377C220.315 22.0055 220.245 22.8572 220.732 36.5783C221.149 48.7854 221.08 51.5296 220.176 53.3276C219.341 55.0309 219.341 55.8825 219.967 57.3966C220.454 58.5321 220.732 65.1561 220.732 76.4169C220.732 92.8823 220.662 93.7339 219.133 96.5728L217.533 99.5063L219.133 103.954C220.662 108.117 220.732 109.442 220.732 126.854C220.732 142.941 220.593 145.685 219.48 148.429C218.298 151.363 218.298 151.93 219.202 155.053C220.454 159.406 220.801 163.002 222.123 184.104C224.348 218.549 228.659 253.751 231.023 255.738C234.499 258.671 255.846 236.244 260.157 225.078C261.617 221.293 261.686 219.968 261.547 206.342C261.339 186.659 260.365 171.045 258.14 152.877C256.68 140.954 256.263 134.235 256.263 121.649C256.259 120.679 256.254 119.765 256.25 118.901C256.213 111.841 256.194 108.125 256.957 104.578C257.805 100.636 259.619 96.9027 263.449 89.0207C263.816 88.2654 264.202 87.4721 264.607 86.6368C271.351 72.6318 272.533 68.4681 272.533 58.4375C272.533 44.811 268.987 20.0183 266.067 12.8266C264.12 8.09513 262.729 7.90587 255.498 11.4071ZM17.0353 11.8265C28.0214 17.1257 31.7762 18.4505 40.6763 19.8699C45.6131 20.7216 50.2718 21.5733 51.0366 21.8571C52.2187 22.4249 52.2882 23.2766 51.8015 36.9977C51.3843 49.2048 51.4538 51.949 52.3577 53.747C53.1921 55.4503 53.1921 56.3019 52.5663 57.816C52.0796 58.9515 51.8015 65.5755 51.8015 76.8363C51.8015 93.3017 51.871 94.1533 53.4007 96.9922L54.9999 99.9257L53.4007 104.373C51.871 108.537 51.8015 109.862 51.8015 127.273C51.8015 143.36 51.9405 146.104 53.053 148.849C54.2351 151.782 54.2351 152.35 53.3312 155.473C52.0796 159.826 51.7319 163.421 50.4108 184.524C48.1858 218.968 43.8748 254.17 41.5107 256.157C38.0341 259.091 16.6877 236.664 12.3767 225.498C10.9165 221.713 10.847 220.388 10.986 206.761C11.1946 187.079 12.1681 171.465 14.3931 153.296C15.8533 141.373 16.2705 134.654 16.2705 122.069C16.2741 121.098 16.2789 120.184 16.2834 119.32C16.3203 112.26 16.3397 108.544 15.5765 104.997C14.7285 101.056 12.9142 97.3221 9.0841 89.4401C8.71709 88.6848 8.33157 87.8915 7.92661 87.0562C1.18199 73.0512 -5.72205e-05 68.8875 -5.72205e-05 58.8569C-5.72205e-05 45.2304 3.54608 20.4377 6.46644 13.246C8.41334 8.51453 9.80399 8.32527 17.0353 11.8265Z" fill="#03BFCB"/>
</svg>
