<svg width="101" height="223" viewBox="0 0 101 223" fill="none" xmlns="http://www.w3.org/2000/svg">
<path fill-rule="evenodd" clip-rule="evenodd" d="M69.5171 36.6672C70.6529 26.0901 72.1227 20.2727 76.7326 8.1091C78.4028 3.70199 80.073 0 80.4071 0C81.8769 0 86.3941 3.04466 90.0018 17.5C100.416 37.9613 100.502 46.6423 100.502 70C100.445 88.9443 99.4104 92.2965 90.7418 120.376C89.1659 125.481 87.3378 131.402 85.2174 138.383C79.9394 167.823 79.4718 172.054 78.1356 196.557C76.8662 220.62 76.6657 223 75.7304 223C73.9265 223 70.1852 204.578 68.7822 188.977C65.4417 151.34 65.8426 71.1308 69.5171 36.6672ZM0.00179937 45C0.075342 25.4713 3.62697 10.0347 5.02428 6.20712C5.392 5.11352 6.20097 4.25426 6.78931 4.25426C8.92204 4.25426 14.7319 12.6125 18.9974 21.8301C25.6162 35.8907 26.2781 39.6402 27.0871 65.5743C27.9696 95.0235 28.0431 188.058 27.1606 187.433C26.2781 186.886 25.3221 182.043 20.4682 154.859C18.4826 143.377 14.3642 122.598 11.349 108.772C8.4638 95.5164 6.26811 86.552 4.61447 79.8006C0.957026 64.8681 -0.0488453 60.7614 0.00179937 45Z" fill="#03BFCB" fill-opacity="0.69"/>
</svg>
