<svg width="101" height="223" viewBox="0 0 101 223" fill="none" xmlns="http://www.w3.org/2000/svg">
<path fill-rule="evenodd" clip-rule="evenodd" d="M30.9847 36.6672C29.849 26.0901 28.3791 20.2727 23.7693 8.1091C22.099 3.70199 20.4288 0 20.0947 0C18.6249 0 14.1078 3.04466 10.5 17.5C0.0862896 37.9613 2.40422e-05 46.6423 2.40422e-05 70C0.0565579 88.9443 1.09144 92.2965 9.76008 120.376C11.3359 125.481 13.1641 131.402 15.2844 138.383C20.5624 167.823 21.0301 172.054 22.3663 196.557C23.6357 220.62 23.8361 223 24.7714 223C26.5753 223 30.3166 204.578 31.7196 188.977C35.0601 151.34 34.6593 71.1308 30.9847 36.6672ZM100.5 45C100.426 25.4713 96.8749 10.0347 95.4775 6.20712C95.1098 5.11352 94.3009 4.25426 93.7125 4.25426C91.5798 4.25426 85.7699 12.6125 81.5044 21.8301C74.8856 35.8907 74.2237 39.6402 73.4147 65.5743C72.5322 95.0235 72.4587 188.058 73.3412 187.433C74.2237 186.886 75.1798 182.043 80.0336 154.859C82.0192 143.377 86.1376 122.598 89.1529 108.772C92.038 95.5164 94.2337 86.552 95.8874 79.8006C99.5448 64.8681 100.551 60.7614 100.5 45Z" fill="#03BFCB" fill-opacity="0.69"/>
</svg>
