<svg width="65" height="201" viewBox="0 0 65 201" fill="none" xmlns="http://www.w3.org/2000/svg">
<path d="M48.6895 3.58372C48.6895 5.21745 51.6254 16 55.2137 27.2727C63.2058 52.7589 65 71.8734 65 137.713V182.967L59.1282 188.031C56.0292 190.972 50.3205 195.22 46.7322 197.507C40.3711 201.918 40.0449 201.918 37.9245 198.814C36.6197 197.017 34.8255 192.606 33.8469 189.012C32.8683 185.417 31.0741 180.68 29.9324 178.392C25.0392 168.753 3.01999 99.6468 1.38894 88.3741C-0.568322 76.1211 -0.405217 32.5007 1.55205 30.5402C2.20447 30.0501 5.79278 30.3768 9.87042 31.1937C21.7771 33.971 26.0178 31.8472 31.5634 20.5745C34.1731 15.1832 37.4352 8.4849 38.5769 5.54419C41.1866 -0.663966 48.6895 -2.13432 48.6895 3.58372Z" fill="url(#paint0_linear_15_19)"/>
<defs>
<linearGradient id="paint0_linear_15_19" x1="32.5" y1="0" x2="32.5" y2="201" gradientUnits="userSpaceOnUse">
<stop stop-color="#03BFCB" stop-opacity="0.34"/>
<stop offset="1" stop-color="#03BFCB"/>
</linearGradient>
</defs>
</svg>
