<svg width="65" height="201" viewBox="0 0 65 201" fill="none" xmlns="http://www.w3.org/2000/svg">
<path d="M16.3105 3.58372C16.3105 5.21745 13.3746 16 9.78632 27.2727C1.79416 52.7589 0 71.8734 0 137.713V182.967L5.87179 188.031C8.97079 190.972 14.6795 195.22 18.2678 197.507C24.6289 201.918 24.9551 201.918 27.0755 198.814C28.3803 197.017 30.1745 192.606 31.1531 189.012C32.1317 185.417 33.9259 180.68 35.0676 178.392C39.9608 168.753 61.98 99.6468 63.6111 88.3741C65.5683 76.1211 65.4052 32.5007 63.448 30.5402C62.7955 30.0501 59.2072 30.3768 55.1296 31.1937C43.2229 33.971 38.9822 31.8472 33.4366 20.5745C30.8269 15.1832 27.5648 8.4849 26.4231 5.54419C23.8134 -0.663966 16.3105 -2.13432 16.3105 3.58372Z" fill="url(#paint0_linear_15_19)"/>
<defs>
<linearGradient id="paint0_linear_15_19" x1="32.5" y1="0" x2="32.5" y2="201" gradientUnits="userSpaceOnUse">
<stop stop-color="#03BFCB" stop-opacity="0.34"/>
<stop offset="1" stop-color="#03BFCB"/>
</linearGradient>
</defs>
</svg>
